<?xml version="1.0" encoding="utf-8"?>
<!-- Generator: Adobe Illustrator 16.0.4, SVG Export Plug-In . SVG Version: 6.00 Build 0)  -->
<!DOCTYPE svg PUBLIC "-//W3C//DTD SVG 1.1//EN" "http://www.w3.org/Graphics/SVG/1.1/DTD/svg11.dtd">
<svg version="1.1" id="Layer_1" xmlns="http://www.w3.org/2000/svg" xmlns:xlink="http://www.w3.org/1999/xlink" x="0px" y="0px"
	 width="283.465px" height="283.465px" viewBox="215.118 54.527 283.465 283.465"
	 enable-background="new 215.118 54.527 283.465 283.465" xml:space="preserve">
<title>Speedometer withouth text</title>
<g>
	<title>Layer 1</title>
	<g id="layer1">
		
			<linearGradient id="path4814_1_" gradientUnits="userSpaceOnUse" x1="99.7014" y1="981.3086" x2="99.1398" y2="982.489" gradientTransform="matrix(-261.4617 0 0 -261.4429 26364.7871 256878.3594)">
			<stop  offset="0" style="stop-color:#000000"/>
			<stop  offset="1" style="stop-color:#EDEDE9"/>
		</linearGradient>
		<path id="path4814" fill="none" stroke="url(#path4814_1_)" stroke-width="8.4494" d="M357.154,64.498L357.154,64.498
			L357.154,64.498c-33.511-0.009-67.043,12.701-92.532,38.191c-50.979,50.979-50.931,134.043,0.046,185.019
			c50.977,50.977,133.997,50.977,184.974,0c50.977-50.976,50.977-133.996,0-184.973C424.154,77.247,390.666,64.506,357.154,64.498
			L357.154,64.498z"/>
		
			<linearGradient id="path4782_1_" gradientUnits="userSpaceOnUse" x1="99.2307" y1="982.3457" x2="99.6496" y2="981.3235" gradientTransform="matrix(-240.5011 0 0 -240.5013 24271.8418 236329.2812)">
			<stop  offset="0" style="stop-color:#333333"/>
			<stop  offset="1" style="stop-color:#CED1D0"/>
		</linearGradient>
		<path id="path4782" fill="none" stroke="url(#path4782_1_)" stroke-width="13.8871" d="M272.098,280.28L272.098,280.28
			c46.92,46.92,123.184,46.92,170.104,0c46.921-46.921,46.921-123.185,0-170.105c-46.921-46.92-123.217-46.952-170.137-0.032
			C225.146,157.064,225.177,233.359,272.098,280.28L272.098,280.28z"/>
		<path id="path4723" fill="#4D4D4D" d="M272.098,280.28c46.92,46.92,123.184,46.92,170.104,0s46.921-123.185,0-170.105
			s-123.216-46.952-170.137-0.031C225.146,157.063,225.177,233.359,272.098,280.28L272.098,280.28z"/>
		<path id="path4729" fill="#666666" d="M354.108,195.112c0.02-1.654,1.377-2.979,3.031-2.96s2.979,1.377,2.96,3.031
			c0,0.023,0,0.047,0,0.071c-0.02,1.655-1.377,2.98-3.031,2.96c-1.654-0.02-2.979-1.376-2.96-3.031
			C354.108,195.159,354.108,195.136,354.108,195.112z"/>
		<path id="rect4749" fill="#FFFFFF" d="M289.198,260.661l2.518,2.517l-8.391,8.391l-2.518-2.518L289.198,260.661z M265.588,217.923
			l0.921,3.438l-11.462,3.071l-0.922-3.438L265.588,217.923z M266.509,169.105l-0.922,3.439l-11.462-3.071l0.922-3.438
			L266.509,169.105z M291.716,127.289l-2.518,2.517l-8.391-8.391l2.517-2.517L291.716,127.289z M422.57,263.178l2.518-2.517
			l8.391,8.391l-2.518,2.517L422.57,263.178z M447.777,221.362l0.921-3.438l11.462,3.071l-0.921,3.438L447.777,221.362z
			 M448.698,172.544l-0.921-3.439l11.462-3.071l0.921,3.439L448.698,172.544z M425.088,129.806l-2.518-2.517l8.391-8.391
			l2.518,2.517L425.088,129.806z M383.27,104.6l-3.438-0.921l3.071-11.462l3.438,0.921L383.27,104.6z M334.453,103.678l-3.438,0.921
			l-3.071-11.462l3.438-0.921L334.453,103.678z"/>
		
			<linearGradient id="path4984_1_" gradientUnits="userSpaceOnUse" x1="99.0896" y1="983.7227" x2="99.5631" y2="981.3757" gradientTransform="matrix(-219.5881 0 0 -129.0803 22183.623 126939.25)">
			<stop  offset="0" style="stop-color:#FFFFFF"/>
			<stop  offset="1" style="stop-color:#FFFFFF;stop-opacity:0"/>
		</linearGradient>
		<path id="path4984" opacity="0.4733" fill="url(#path4984_1_)" enable-background="new    " d="M273.548,107.779L273.548,107.779
			L273.548,107.779c-64.478,71.024,0.718,87.701,81.599,94.876c73.485-5.199,156.946-18.707,83.119-94.846
			C392.839,62.184,318.973,62.153,273.548,107.779L273.548,107.779z"/>
		
			<linearGradient id="path4552_1_" gradientUnits="userSpaceOnUse" x1="98.95" y1="981.9434" x2="99.95" y2="981.9434" gradientTransform="matrix(-238.0466 -7.0057 6.1362 -208.5033 18006.6836 205613.4531)">
			<stop  offset="0.1523" style="stop-color:#FF0000"/>
			<stop  offset="0.2578" style="stop-color:#FFFF00;stop-opacity:0.9961"/>
			<stop  offset="0.7344" style="stop-color:#FFFF00;stop-opacity:0.9961"/>
			<stop  offset="0.8711" style="stop-color:#00FF00;stop-opacity:0.9961"/>
		</linearGradient>
		<path id="path4552" fill="url(#path4552_1_)" d="M361.43,73.99c-30.49-0.905-61.321,9.775-85.225,32.272
			c-47.808,44.994-49.982,120.381-4.903,168.109c1.897,2.009,3.853,3.951,5.886,5.823l6.348-6.831
			c-1.863-1.718-3.692-3.5-5.458-5.369c-41.548-43.991-39.504-113.451,4.56-154.922c44.063-41.471,113.646-39.423,155.195,4.567
			c41.549,43.99,39.504,113.451-4.56,154.922l6.389,6.764c47.809-44.994,50.025-120.335,4.946-168.063
			C422.069,87.399,391.921,74.896,361.43,73.99L361.43,73.99z"/>
	</g>
</g>
</svg>
