<?xml version="1.0" encoding="utf-8"?>
<!-- Generator: Adobe Illustrator 16.0.1, SVG Export Plug-In . SVG Version: 6.00 Build 0)  -->
<!DOCTYPE svg PUBLIC "-//W3C//DTD SVG 1.1//EN" "http://www.w3.org/Graphics/SVG/1.1/DTD/svg11.dtd">
<svg version="1.1" id="Layer_1" xmlns="http://www.w3.org/2000/svg" xmlns:xlink="http://www.w3.org/1999/xlink" x="0px" y="0px"
	 width="96px" height="96px" viewBox="0 0 96 96" enable-background="new 0 0 96 96" xml:space="preserve">
<path fill="#333333" d="M53.718,8.516c0,0-2.853-5.057-5.035-5.969c-2.213-0.918-4.185-0.405-5.625-0.03
	c-1.686,0.438-4.709,1.397-9.536,3.469c-2.204,0.947-3.91,1.729-5.541,2.544c-1.438,0.719-2.718,1.409-4.345,2.288l-0.782,0.423
	c-3.12,1.679-5.519,3.185-6.542,3.829c-0.222,0.138-0.374,0.233-0.453,0.28c-0.106,0.064-0.429,0.253-0.437,0.563
	c0.003,0.021,0,0.041,0.004,0.058c-0.45,0.329-1.594,1.186-2.435,1.993c-1.4,1.345-1.98,2.465-2.136,4.138
	c-0.142,1.529,0.696,3.562,1.012,4.328c0.03,0.081,0.08,0.192,0.08,0.192l27.962,56.435l2.811,4.952c0,0,3.736,4.882,5.361,5.533
	c1.478,0.597,3.039,0.609,5.062,0.044c0.217-0.062,0.421-0.118,0.621-0.172c1.528-0.418,2.736-0.748,6.662-2.457
	c0.394-0.172,0.778-0.341,1.158-0.504c1.783-0.772,3.474-1.503,5.67-2.601c1.56-0.779,3.261-1.685,5.203-2.771
	c6.791-3.81,10.042-5.931,11.349-8.442c1.285-2.471,0.666-4.859,0.259-6.441l-0.018-0.068c-0.478-1.844-2.8-6.84-2.8-6.84
	L53.718,8.516z M65.736,83.578c-1.197,0.599-2.651,0.112-3.248-1.083c-0.598-1.196-0.113-2.65,1.084-3.248
	c1.197-0.599,2.652-0.113,3.249,1.082C67.419,81.525,66.934,82.979,65.736,83.578z M76.899,63.52L42.896,80.509l-27.094-54.23
	L49.805,9.29L76.899,63.52z"/>
</svg>
