<?xml version="1.0" encoding="utf-8"?>
<!-- Generator: Adobe Illustrator 16.0.1, SVG Export Plug-In . SVG Version: 6.00 Build 0)  -->
<!DOCTYPE svg PUBLIC "-//W3C//DTD SVG 1.1//EN" "http://www.w3.org/Graphics/SVG/1.1/DTD/svg11.dtd">
<svg version="1.1" id="Layer_1" xmlns="http://www.w3.org/2000/svg" xmlns:xlink="http://www.w3.org/1999/xlink" x="0px" y="0px"
	 width="96px" height="96px" viewBox="0 0 96 96" enable-background="new 0 0 96 96" xml:space="preserve">
<g>
	<polygon fill="#333333" points="80.551,76.263 80.551,60.365 75.729,60.365 75.729,76.263 60.072,76.263 60.072,81.086 
		75.729,81.086 75.729,96.771 80.551,96.771 80.551,81.086 96.309,81.086 96.309,76.263 	"/>
	<path fill="#333333" d="M36.1-0.771c-13.257,0-24.001,10.746-24.001,24.005c0,13.264,10.745,24.01,24.001,24.01
		c13.267,0,24.01-10.746,24.01-24.01C60.109,9.975,49.366-0.771,36.1-0.771z M37.272,42.247c-7.156,0-13.452-4.697-17.121-11.811
		h34.236C50.721,37.55,44.432,42.247,37.272,42.247z"/>
	<path fill="#333333" d="M50.587,50.355c-4.316,2.317-9.249,3.637-14.487,3.637c-5.231,0-10.163-1.319-14.479-3.635
		c-9.326,2.449-16.635,8.259-19.988,20.745h68.947C67.229,58.613,59.922,52.805,50.587,50.355z"/>
</g>
</svg>
