<?xml version="1.0" encoding="utf-8"?>
<!-- Generator: Adobe Illustrator 16.0.1, SVG Export Plug-In . SVG Version: 6.00 Build 0)  -->
<!DOCTYPE svg PUBLIC "-//W3C//DTD SVG 1.1//EN" "http://www.w3.org/Graphics/SVG/1.1/DTD/svg11.dtd">
<svg version="1.1" id="Layer_1" xmlns="http://www.w3.org/2000/svg" xmlns:xlink="http://www.w3.org/1999/xlink" x="0px" y="0px"
	 width="96px" height="96px" viewBox="0 0 96 96" enable-background="new 0 0 96 96" xml:space="preserve">
<path fill="#333333" d="M94.296,77.271c1.021-1.345,0.937-3.253-0.291-4.483c-0.141-0.141-0.304-0.265-0.464-0.374l-0.006-0.028
	l-19.94-14.253l-0.027,0.016c-1.33-0.981-3.205-0.884-4.424,0.332c-0.111,0.117-0.214,0.251-0.312,0.39v0.003
	c-0.064,0.079-0.123,0.155-0.174,0.246c-1.337,1.913-1.325,2.156-2.408,3.823c-1.536,2.406-3.307,6.121-5.061,10.347
	c-5.603-0.864-13.942-5.728-23.064-14.853c-9.126-9.119-13.991-17.459-14.843-23.056c4.22-1.756,7.932-3.53,10.35-5.059
	c1.652-1.085,1.896-1.075,3.822-2.407c0.078-0.061,0.157-0.111,0.244-0.171c0,0,0.008,0,0.008-0.01
	c0.126-0.094,0.268-0.192,0.384-0.312c1.209-1.208,1.308-3.082,0.334-4.425v-0.022L24.179,3.033h-0.032
	c-0.118-0.163-0.236-0.32-0.378-0.469c-1.226-1.215-3.143-1.305-4.481-0.282C9.739,8.83,1.098,16.019,2.232,24.53
	c1.212,9.132,12.096,29.245,26.327,43.471c14.236,14.228,34.36,25.114,43.483,26.315C80.554,95.46,87.745,86.823,94.296,77.271"/>
</svg>
