<?xml version="1.0" encoding="utf-8"?>
<!-- Generator: Adobe Illustrator 16.0.1, SVG Export Plug-In . SVG Version: 6.00 Build 0)  -->
<!DOCTYPE svg PUBLIC "-//W3C//DTD SVG 1.1//EN" "http://www.w3.org/Graphics/SVG/1.1/DTD/svg11.dtd">
<svg version="1.1" id="Layer_1" xmlns="http://www.w3.org/2000/svg" xmlns:xlink="http://www.w3.org/1999/xlink" x="0px" y="0px"
	 width="96px" height="96px" viewBox="0 0 96 96" enable-background="new 0 0 96 96" xml:space="preserve">
<g>
	<path fill="#333333" d="M92.643,45.449l-10.339,0.017C81.062,29,67.873,15.865,51.402,14.684L51.383,4.34l-4.938,0.008
		l0.017,10.348c-16.46,1.244-29.598,14.431-30.774,30.898L5.344,45.616l0.005,4.933l10.344-0.02
		c1.247,16.463,14.433,29.596,30.903,30.777l0.017,10.354l4.938-0.007l-0.024-10.354c16.468-1.244,29.601-14.43,30.786-30.9
		l10.345-0.017L92.643,45.449z M49.05,76.492c-15.713,0.031-28.518-12.726-28.545-28.438C20.47,32.34,33.228,19.529,48.94,19.498
		c15.718-0.029,28.529,12.73,28.556,28.447C77.53,63.657,64.764,76.463,49.05,76.492z"/>
</g>
</svg>
