<?xml version="1.0" encoding="utf-8"?>
<!-- Generator: Adobe Illustrator 16.0.1, SVG Export Plug-In . SVG Version: 6.00 Build 0)  -->
<!DOCTYPE svg PUBLIC "-//W3C//DTD SVG 1.1//EN" "http://www.w3.org/Graphics/SVG/1.1/DTD/svg11.dtd">
<svg version="1.1" id="Layer_1" xmlns="http://www.w3.org/2000/svg" xmlns:xlink="http://www.w3.org/1999/xlink" x="0px" y="0px"
	 width="96px" height="96px" viewBox="0 0 96 96" enable-background="new 0 0 96 96" xml:space="preserve">
<path fill="#333333" d="M88.268,76.211L72.521,60.46c-1.386-1.384-3.894-1.252-6.407,0.059l-6.87-6.867
	c8.95-11.694,8.105-28.481-2.594-39.181c-11.648-11.644-30.531-11.644-42.181,0c-11.644,11.65-11.644,30.533,0,42.184
	c10.702,10.697,27.489,11.542,39.182,2.59l6.869,6.865c-1.31,2.519-1.444,5.024-0.061,6.41l15.748,15.75
	c1.99,1.987,6.309,0.896,9.632-2.437C89.168,82.509,90.26,78.198,88.268,76.211z M18.905,52.22c-9.195-9.203-9.195-24.118,0-33.313
	c9.203-9.203,24.105-9.195,33.312,0c9.195,9.195,9.195,24.105,0,33.313C43.01,61.416,28.101,61.416,18.905,52.22z"/>
</svg>
