<?xml version="1.0" encoding="utf-8"?>
<!-- Generator: Adobe Illustrator 16.0.3, SVG Export Plug-In . SVG Version: 6.00 Build 0)  -->
<!DOCTYPE svg PUBLIC "-//W3C//DTD SVG 1.1//EN" "http://www.w3.org/Graphics/SVG/1.1/DTD/svg11.dtd">
<svg version="1.1" id="Layer_1" xmlns="http://www.w3.org/2000/svg" xmlns:xlink="http://www.w3.org/1999/xlink" x="0px" y="0px"
	 width="125px" height="32px" viewBox="0 0 125 32" enable-background="new 0 0 125 32" xml:space="preserve">
<g>
	<defs>
		<rect id="SVGID_1_" width="125" height="32"/>
	</defs>
	<clipPath id="SVGID_2_">
		<use xlink:href="#SVGID_1_"  overflow="visible"/>
	</clipPath>
	<path clip-path="url(#SVGID_2_)" d="M0,0.818c0,0.109,0,14.173,0,14.173h1.341c0,0,0-14.064,0-14.173
		C1.24,0.818,0.101,0.818,0,0.818"/>
	<rect x="4.314" y="7.129" clip-path="url(#SVGID_2_)" width="1.339" height="7.892"/>
	<rect x="38.976" y="0.818" clip-path="url(#SVGID_2_)" width="1.34" height="14.173"/>
	<rect x="27.007" y="3.579" clip-path="url(#SVGID_2_)" width="1.341" height="11.441"/>
	<rect x="60.233" y="4.367" clip-path="url(#SVGID_2_)" width="1.342" height="10.653"/>
	<rect x="56.281" y="7.129" clip-path="url(#SVGID_2_)" width="1.341" height="7.892"/>
	<path clip-path="url(#SVGID_2_)" d="M91.339,0.818c0,0.11,0,14.173,0,14.173h1.337c0,0,0-14.063,0-14.173
		C92.578,0.818,91.437,0.818,91.339,0.818"/>
	<path clip-path="url(#SVGID_2_)" d="M97.873,7.92c0,0.109,0,7.101,0,7.101h1.339c0,0,0-6.992,0-7.101
		C99.114,7.92,97.971,7.92,97.873,7.92"/>
	<path clip-path="url(#SVGID_2_)" d="M70.643,4.367v1.342h2.427v7.968c0,0-2.321,0-2.427,0c0,0.101,0,1.344,0,1.344h3.767
		c0,0,0-10.547,0-10.654C74.303,4.367,70.643,4.367,70.643,4.367"/>
	<path clip-path="url(#SVGID_2_)" d="M76.025,4.367v10.654h3.766v-1.344h-2.426V5.709c0,0,2.32,0,2.426,0c0-0.097,0-1.342,0-1.342
		H76.025"/>
	<path clip-path="url(#SVGID_2_)" d="M112.066,24.913c0,0-0.938,0-1.04,0c0,0.114,0,6.976,0,7.087c0.1,0,1.081,0,1.182,0
		c0-0.111,0-6.973,0-7.087C112.149,24.913,112.066,24.913,112.066,24.913"/>
	<path clip-path="url(#SVGID_2_)" d="M124.585,24.913c0,0-4.763,0-4.876,0c0,0.114,0,6.976,0,7.087c0.1,0,1.081,0,1.18,0
		c0-0.111,0-6.122,0-6.122h2.656c0,0,0,6.011,0,6.122c0.1,0,1.078,0,1.18,0c0-0.111,0-6.973,0-7.087
		C124.666,24.913,124.585,24.913,124.585,24.913"/>
	<path clip-path="url(#SVGID_2_)" d="M118.045,24.913c0,0-4.087,0-4.198,0c0,0.114,0,6.976,0,7.087c0.108,0,4.453,0,4.562,0
		c0-0.097,0-0.867,0-0.965c-0.108,0-3.384,0-3.384,0v-2.206c0,0,2.822,0,2.933,0c0-0.098,0-0.872,0-0.967c-0.11,0-2.933,0-2.933,0
		v-1.984c0,0,3.048,0,3.161,0c0-0.094,0-0.866,0-0.965C118.126,24.913,118.045,24.913,118.045,24.913"/>
	<path clip-path="url(#SVGID_2_)" d="M102.372,24.913c0,0-4.089,0-4.202,0c0,0.114,0,6.976,0,7.087c0.111,0,4.452,0,4.566,0
		c0-0.097,0-0.867,0-0.965c-0.114,0-3.385,0-3.385,0v-2.206c0,0,2.821,0,2.933,0c0-0.098,0-0.872,0-0.967c-0.111,0-2.933,0-2.933,0
		v-1.984c0,0,3.047,0,3.16,0c0-0.094,0-0.866,0-0.965C102.453,24.913,102.372,24.913,102.372,24.913"/>
	<path clip-path="url(#SVGID_2_)" d="M96.506,24.913c0,0-7.691,0-7.811,0c0,0.114,0,6.976,0,7.087c0.104,0,1.081,0,1.183,0
		c0-0.113,0-6.122,0-6.122h2.203c0,0,0,6.009,0,6.122c0.1,0,1.08,0,1.179,0c0-0.113,0-6.122,0-6.122h2.202c0,0,0,6.009,0,6.122
		c0.104,0,1.082,0,1.183,0c0-0.111,0-6.973,0-7.087C96.587,24.913,96.506,24.913,96.506,24.913"/>
	<path clip-path="url(#SVGID_2_)" d="M105.443,30.944v-5.066h2.875v5.157h-2.875V30.944 M108.683,24.913c0,0-4.311,0-4.425,0
		c0,0.114,0,6.976,0,7.087c0.114,0,4.454,0,4.565,0c0-0.096,0-0.679,0-0.679s0.58,0,0.68,0c0-0.111,0-5.614,0-5.728
		c-0.1,0-0.68,0-0.68,0s0-0.582,0-0.681C108.766,24.913,108.683,24.913,108.683,24.913"/>
	<path clip-path="url(#SVGID_2_)" d="M80.152,27.77v-1.892h2.428v1.984h-2.428V27.77 M83.621,24.913c0,0-4.537,0-4.65,0
		c0,0.114,0,6.976,0,7.087c0.1,0,1.078,0,1.182,0c0-0.111,0-3.171,0-3.171h3.103c0,0,0,3.06,0,3.171c0.104,0,1.08,0,1.182,0
		c0-0.109,0-3.349,0-3.455c-0.098,0-0.676,0-0.676,0s0-3.52,0-3.632C83.703,24.913,83.621,24.913,83.621,24.913"/>
	<path clip-path="url(#SVGID_2_)" d="M77.419,24.913c0,0-4.084,0-4.199,0c0,0.114,0,6.976,0,7.087c0.111,0,4.449,0,4.565,0
		c0-0.097,0-0.867,0-0.965c-0.116,0-3.385,0-3.385,0v-2.206c0,0,2.822,0,2.932,0c0-0.098,0-0.872,0-0.967c-0.109,0-2.932,0-2.932,0
		v-1.984c0,0,3.047,0,3.158,0c0-0.096,0-0.866,0-0.965C77.5,24.913,77.419,24.913,77.419,24.913"/>
	<path clip-path="url(#SVGID_2_)" d="M67.634,30.944v-5.066h2.878v5.157h-2.878V30.944 M70.876,24.913c0,0-4.312,0-4.424,0
		c0,0.114,0,6.976,0,7.087c0.109,0,4.455,0,4.565,0c0-0.096,0-0.679,0-0.679s0.579,0,0.678,0c0-0.111,0-5.615,0-5.728
		c-0.099,0-0.678,0-0.678,0s0-0.582,0-0.681C70.96,24.913,70.876,24.913,70.876,24.913"/>
	<path clip-path="url(#SVGID_2_)" d="M61.937,24.913c0,0-4.085,0-4.198,0c0,0.114,0,6.976,0,7.087c0.112,0,4.454,0,4.567,0
		c0-0.097,0-0.867,0-0.965c-0.113,0-3.387,0-3.387,0v-2.206c0,0,2.823,0,2.934,0c0-0.098,0-0.872,0-0.967c-0.111,0-2.934,0-2.934,0
		v-1.984c0,0,3.047,0,3.161,0c0-0.096,0-0.866,0-0.965C62.019,24.913,61.937,24.913,61.937,24.913"/>
	<path clip-path="url(#SVGID_2_)" d="M53.254,24.913c0,0-0.937,0-1.04,0c0,0.114,0,6.976,0,7.087c0.111,0,4.452,0,4.562,0
		c0-0.097,0-0.867,0-0.965c-0.111,0-3.381,0-3.381,0s0-6.008,0-6.122C53.336,24.913,53.254,24.913,53.254,24.913"/>
	<path clip-path="url(#SVGID_2_)" d="M49.505,24.913c0,0.114,0,6.122,0,6.122h-2.877c0,0,0-6.008,0-6.122c-0.101,0-1.081,0-1.181,0
		c0,0.114,0,6.976,0,7.087c0.113,0,5.129,0,5.241,0c0-0.111,0-6.973,0-7.087C50.587,24.913,49.608,24.913,49.505,24.913"/>
	<path clip-path="url(#SVGID_2_)" d="M43.896,24.913c0,0-0.939,0-1.043,0c0,0.112,0,2.949,0,2.949h-2.879c0,0,0-2.837,0-2.949
		c-0.1,0-1.08,0-1.182,0c0,0.114,0,6.975,0,7.087c0.102,0,1.082,0,1.182,0c0-0.111,0-3.171,0-3.171h2.879c0,0,0,3.06,0,3.171
		c0.1,0,1.082,0,1.183,0c0-0.111,0-6.973,0-7.087C43.977,24.913,43.896,24.913,43.896,24.913"/>
	<path clip-path="url(#SVGID_2_)" d="M37.354,24.913c0,0-4.537,0-4.652,0c0,0.114,0,6.975,0,7.087c0.112,0,4.681,0,4.792,0
		c0-0.097,0-0.867,0-0.965c-0.113,0-3.608,0-3.608,0v-5.157c0,0,3.495,0,3.608,0c0-0.096,0-0.866,0-0.965
		C37.437,24.913,37.354,24.913,37.354,24.913"/>
	<path clip-path="url(#SVGID_2_)" d="M26.389,24.913c0,0.112,0,3.804,0,3.916c0.111,0,3.607,0,3.607,0v2.206c0,0-3.496,0-3.607,0
		c0,0.098,0,0.868,0,0.965c0.111,0,4.678,0,4.79,0c0-0.111,0-4.028,0-4.14c-0.112,0-3.607,0-3.607,0v-1.982c0,0,3.495,0,3.607,0
		c0-0.096,0-0.866,0-0.965C31.12,24.913,26.502,24.913,26.389,24.913"/>
	<path clip-path="url(#SVGID_2_)" d="M23.682,24.913c0,0.112,0,2.947,0,2.947h-2.878c0,0,0-2.835,0-2.947c-0.101,0-1.081,0-1.183,0
		c0,0.114,0,6.975,0,7.087c0.102,0,1.082,0,1.183,0c0-0.111,0-3.171,0-3.171h2.878c0,0,0,3.06,0,3.171c0.101,0,1.08,0,1.181,0
		c0-0.112,0-6.973,0-7.087C24.805,24.913,23.787,24.913,23.682,24.913"/>
	<path clip-path="url(#SVGID_2_)" d="M13.533,24.913c0,0.114,0,6.975,0,7.087c0.112,0,4.677,0,4.79,0c0-0.097,0-0.867,0-0.965
		c-0.113,0-3.608,0-3.608,0v-5.157h3.608v-0.965C18.323,24.913,13.646,24.913,13.533,24.913"/>
	<path clip-path="url(#SVGID_2_)" d="M7.948,30.944v-5.066h2.878v5.157H7.948V30.944 M11.87,24.913c0,0-4.989,0-5.103,0
		c0,0.114,0,6.975,0,7.087c0.113,0,5.129,0,5.24,0c0-0.112,0-6.973,0-7.087C11.95,24.913,11.87,24.913,11.87,24.913"/>
	<path clip-path="url(#SVGID_2_)" d="M4.059,24.913c0,0.112,0,2.947,0,2.947H1.181c0,0,0-2.835,0-2.947c-0.099,0-1.079,0-1.181,0
		C0,25.025,0,31.889,0,32c0.102,0,1.082,0,1.181,0c0-0.111,0-3.171,0-3.171h2.878c0,0,0,3.06,0,3.171c0.101,0,1.081,0,1.182,0
		c0-0.112,0-6.973,0-7.087C5.14,24.913,4.16,24.913,4.059,24.913"/>
</g>
</svg>
